<?xml version="1.0" encoding="utf-8"?>
<!DOCTYPE svg PUBLIC "-//W3C//DTD SVG 1.1//EN" "http://www.w3.org/Graphics/SVG/1.1/DTD/svg11.dtd">
<svg version="1.1" xmlns="http://www.w3.org/2000/svg" xmlns:xlink="http://www.w3.org/1999/xlink" x="0px" y="0px" viewBox="0 0 1000 1000" enable-background="new 0 0 1000 1000" xml:space="preserve" width="24px" height="24px">
<g><path d="M990,676.4H814.4V500.7H675v175.6H499.2v139.4h175.6v175.8h139.4V815.9H990V676.4z M613.5,989.9H35c-14.4,0-25.8-12.2-25-26.7c3.2-57.1,15.2-190.6,58.4-252.1c65.3-93,281-61,341.5-144.2c6.6-9.1,7.9-33.6,7.8-52.6c0-7.1-3-13.9-8.3-18.7c-51.6-46.4-86.7-127.6-87.5-205.9C320.3,136.1,342.8,8.5,501.8,8.5c154.1,0,177.9,126.4,177.9,278.8c0,79.9-35.3,161.7-87.2,208.2c-5.2,4.7-8.2,11.3-8.3,18.3c-0.4,18.9,0.6,43.8,7.4,53c6.1,8.2,13.6,15.3,22.2,21.5v25.1H437.9v262.1h175.6V989.9"/></g>
</svg>
