<?xml version="1.0" encoding="UTF-8" standalone="no"?>
<svg width="20px" height="20px" viewBox="0 0 20 20" version="1.1" xmlns="http://www.w3.org/2000/svg" xmlns:xlink="http://www.w3.org/1999/xlink">
    <!-- Generator: sketchtool 39.1 (31720) - http://www.bohemiancoding.com/sketch -->
    <title>20B2BCB1-BF34-4A48-83B0-ECEE995CF36D</title>
    <desc>Created with sketchtool.</desc>
    <defs></defs>
    <g id="Constructor" stroke="none" stroke-width="1" fill="none" fill-rule="evenodd">
        <g transform="translate(-1070.000000, -728.000000)" id="Step-3" fill="#7F9A3A">
            <g transform="translate(250.000000, 652.000000)">
                <g id="Device-1" transform="translate(60.000000, 71.000000)">
                    <g id="add-rem" transform="translate(760.000000, 5.000000)">
                        <path d="M10,0 C4.47990721,0 0,4.47990233 0,10 C0,15.520093 4.47990721,20 10,20 C15.5200928,20 20,15.520093 20,10 C20,4.47990233 15.5200928,0 10,0 L10,0 Z M10,0.465116279 C15.2687253,0.465116279 19.5348837,4.73126977 19.5348837,10 C19.5348837,15.2687209 15.2687253,19.5348837 10,19.5348837 C4.73127465,19.5348837 0.465116279,15.2687209 0.465116279,10 C0.465116279,4.73126977 4.73127465,0.465116279 10,0.465116279 L10,0.465116279 Z M9.97093023,4.64389535 C9.85113587,4.65890588 9.76274468,4.76308121 9.76744186,4.88372093 L9.76744186,9.76744186 L4.88372093,9.76744186 C4.86921812,9.76607634 4.85461909,9.76607634 4.84011628,9.76744186 C4.71167797,9.77948296 4.61731938,9.89336401 4.62936047,10.0218023 C4.64140156,10.1502406 4.75528262,10.2445992 4.88372093,10.2325581 L9.76744186,10.2325581 L9.76744186,15.1162791 C9.76625635,15.2001475 9.81032057,15.2781574 9.88276161,15.3204376 C9.95520266,15.3627178 10.0447973,15.3627178 10.1172384,15.3204376 C10.1896794,15.2781574 10.2337437,15.2001475 10.2325581,15.1162791 L10.2325581,10.2325581 L15.1162791,10.2325581 C15.2001475,10.2337437 15.2781574,10.1896794 15.3204376,10.1172384 C15.3627178,10.0447973 15.3627178,9.95520266 15.3204376,9.88276161 C15.2781574,9.81032057 15.2001475,9.76625635 15.1162791,9.76744186 L10.2325581,9.76744186 L10.2325581,4.88372093 C10.2352293,4.81540861 10.2077105,4.74938066 10.1573153,4.70318507 C10.1069201,4.65698948 10.0387529,4.63530526 9.97093023,4.64389535 L9.97093023,4.64389535 Z" id="add-icon"></path>
                    </g>
                </g>
            </g>
        </g>
    </g>
</svg>