<?xml version="1.0" encoding="UTF-8" standalone="no"?>
<svg width="44px" height="44px" viewBox="0 0 44 44" version="1.1" xmlns="http://www.w3.org/2000/svg" xmlns:xlink="http://www.w3.org/1999/xlink">
    <!-- Generator: sketchtool 41.2 (35397) - http://www.bohemiancoding.com/sketch -->
    <title>B86FD74C-91F6-46D1-B6B9-E6C1E4D089EF</title>
    <desc>Created with sketchtool.</desc>
    <defs>
        <circle id="path-1" cx="18" cy="18" r="18"></circle>
        <filter x="-50%" y="-50%" width="200%" height="200%" filterUnits="objectBoundingBox" id="filter-2">
            <feOffset dx="0" dy="2" in="SourceAlpha" result="shadowOffsetOuter1"></feOffset>
            <feGaussianBlur stdDeviation="2" in="shadowOffsetOuter1" result="shadowBlurOuter1"></feGaussianBlur>
            <feColorMatrix values="0 0 0 0 0   0 0 0 0 0   0 0 0 0 0  0 0 0 0.5 0" type="matrix" in="shadowBlurOuter1"></feColorMatrix>
        </filter>
    </defs>
    <g id="Map" stroke="none" stroke-width="1" fill="none" fill-rule="evenodd">
        <g id="Icons" transform="translate(-27.000000, -108.000000)">
            <g id="O5" transform="translate(31.000000, 110.000000)">
                <g id="Oval-3-Copy-5">
                    <use fill="black" fill-opacity="1" filter="url(#filter-2)" xlink:href="#path-1"></use>
                    <use fill="#FFFFFF" fill-rule="evenodd" xlink:href="#path-1"></use>
                </g>
                <path d="M18,35 C27.3888407,35 35,27.3888407 35,18 C35,8.61115925 27.3888407,1 18,1 C8.61115925,1 1,8.61115925 1,18 C1,27.3888407 8.61115925,35 18,35 Z M18,34 C9.163444,34 2,26.836556 2,18 C2,9.163444 9.163444,2 18,2 C26.836556,2 34,9.163444 34,18 C34,26.836556 26.836556,34 18,34 Z" id="power-button-copy-2" fill="#169EB1"></path>
                <g id="Group" transform="translate(8.500000, 7.000000)" fill="#169EB1">
                    <path d="M9.62059722,4.34031395 C6.67876389,4.34031395 4.28423611,6.76654651 4.28423611,9.74905814 C4.28423611,11.6508372 5.79341667,13.3167326 5.85701389,13.3865349 C6.14966667,13.7053256 6.48058333,14.3875698 6.55104167,14.8173488 L7.05638889,17.9124535 C7.12684722,18.3416977 7.34956944,18.7238721 7.65726389,19.0145814 L7.65726389,20.0921047 L7.65726389,20.575907 L7.65726389,21.730186 L7.91693056,21.8069419 C8.01430556,21.8352907 8.11220833,21.8582907 8.21063889,21.8818256 C8.21011111,21.8882442 8.20694444,21.893593 8.20694444,21.9000116 C8.20694444,22.4314186 8.80993056,22.8325814 9.60925,22.8325814 C10.4077778,22.8325814 11.0107639,22.4314186 11.0107639,21.9000116 C11.0107639,21.8954651 11.0078611,21.8919884 11.0078611,21.8877093 C11.1139444,21.8625698 11.2197639,21.8374302 11.3245278,21.8066744 L11.5841944,21.7299186 L11.5841944,20.5756395 L11.5841944,20.0918372 L11.5841944,19.0132442 C11.8913611,18.7228023 12.1143472,18.3408953 12.1840139,17.912186 L12.6906806,14.8170814 C12.760875,14.3875698 13.0917917,13.7053256 13.3841806,13.3862674 C13.4483056,13.3164651 14.9566944,11.6505698 14.9566944,9.7487907 C14.9574861,6.76654651 12.5632222,4.34031395 9.62059722,4.34031395 Z M8.37847222,21.1744419 L8.37847222,20.7673953 C8.78697222,20.8535116 9.20286111,20.8981744 9.621125,20.8981744 C10.0393889,20.8981744 10.4552778,20.8535116 10.8637778,20.7673953 L10.8637778,21.1744419 C10.0459861,21.3712791 9.196,21.3712791 8.37847222,21.1744419 Z M10.8637778,20.0198953 C10.0496806,20.2153953 9.19283333,20.2153953 8.37847222,20.0198953 L8.37847222,19.4550581 C8.56979167,19.5211163 8.77008333,19.5617674 8.97618056,19.5617674 L10.2652778,19.5617674 C10.4719028,19.5617674 10.6724583,19.5211163 10.8637778,19.4547907 L10.8637778,20.0198953 Z M12.328625,12.3911163 C11.8412222,12.9222558 11.3852222,13.8628488 11.2685833,14.5782558 L10.7621806,17.6736279 C10.7262917,17.8926628 10.4845694,18.1004651 10.2652778,18.1004651 L8.97591667,18.1004651 C8.75636111,18.1004651 8.51516667,17.8929302 8.47901389,17.6736279 L7.97340278,14.5785233 C7.85623611,13.8628488 7.40076389,12.9225233 6.91441667,12.392186 C6.90227778,12.3790814 5.72638889,11.0704884 5.72638889,9.74905814 C5.72638889,7.57261628 7.47306944,5.80215116 9.62033333,5.80215116 C11.7683889,5.80215116 13.5153333,7.57288372 13.5153333,9.74905814 C13.5155972,11.0704884 12.3397083,12.3790814 12.328625,12.3911163 Z" id="Shape"></path>
                    <path d="M9.62059722,2.89746512 C9.82009722,2.89746512 9.98133333,2.7337907 9.98133333,2.53187209 L9.98133333,0.532476744 C9.98133333,0.330825581 9.82009722,0.167151163 9.62059722,0.167151163 C9.421625,0.167151163 9.26038889,0.330825581 9.26038889,0.532476744 L9.26038889,2.53213953 C9.26038889,2.7337907 9.421625,2.89746512 9.62059722,2.89746512 Z" id="Shape"></path>
                    <path d="M5.73008333,3.62089535 C5.79684722,3.73803488 5.91823611,3.8032907 6.04305556,3.8032907 C6.10427778,3.8032907 6.16655556,3.78777907 6.22302778,3.75434884 C6.39561111,3.65325581 6.45472222,3.42994186 6.35523611,3.25503488 L5.36802778,1.52388372 C5.26827778,1.34924419 5.04713889,1.28906977 4.87561111,1.39043023 C4.70329167,1.49152326 4.64365278,1.71483721 4.74366667,1.88974419 L5.73008333,3.62089535 Z" id="Shape"></path>
                    <path d="M1.50126389,5.35311628 L3.20968056,6.35254651 C3.26641667,6.3857093 3.32843056,6.40148837 3.38965278,6.40148837 C3.51447222,6.40148837 3.63559722,6.33596512 3.70236111,6.21855814 C3.802375,6.04365116 3.74273611,5.82033721 3.57041667,5.71951163 L1.86173611,4.71981395 C1.68915278,4.61872093 1.46906944,4.67889535 1.36905556,4.85380233 C1.26956944,5.0287093 1.32868056,5.25202326 1.50126389,5.35311628 Z" id="Shape"></path>
                    <path d="M2.73573611,9.62977907 C2.73573611,9.42786047 2.5745,9.26418605 2.37526389,9.26418605 L0.401638889,9.26418605 C0.202138889,9.26418605 0.0414305556,9.42786047 0.0414305556,9.62977907 C0.0414305556,9.83143023 0.202138889,9.99510465 0.401638889,9.99510465 L2.37526389,9.99510465 C2.5745,9.99510465 2.73573611,9.83169767 2.73573611,9.62977907 Z" id="Shape"></path>
                    <path d="M3.08855556,12.9401744 L1.379875,13.9398721 C1.20729167,14.0409651 1.14818056,14.2645465 1.24793056,14.439186 C1.31469444,14.5563256 1.43581944,14.6221163 1.56063889,14.6221163 C1.62186111,14.6221163 1.68413889,14.6063372 1.74061111,14.572907 L3.44929167,13.5732093 C3.621875,13.4721163 3.68098611,13.2485349 3.58123611,13.0738953 C3.48095833,12.8987209 3.26034722,12.8390814 3.08855556,12.9401744 Z" id="Shape"></path>
                    <path d="M17.4987361,14.1522209 L15.7897917,13.1527907 C15.618,13.0519651 15.397125,13.1116047 15.297375,13.2865116 C15.197625,13.4614186 15.2572639,13.685 15.4295833,13.7858256 L17.1382639,14.7855233 C17.1947361,14.8184186 17.25675,14.8341977 17.3179722,14.8341977 C17.4430556,14.8341977 17.5639167,14.7689419 17.6306806,14.6515349 C17.7301667,14.4768953 17.6710556,14.253314 17.4987361,14.1522209 Z" id="Shape"></path>
                    <path d="M18.5980972,9.50996512 L16.6244722,9.50996512 C16.4249722,9.50996512 16.2642639,9.67363953 16.2642639,9.8752907 C16.2642639,10.0769419 16.4249722,10.2408837 16.6244722,10.2408837 L18.5980972,10.2408837 C18.7970694,10.2408837 18.9585694,10.0772093 18.9585694,9.8752907 C18.9585694,9.67337209 18.7968056,9.50996512 18.5980972,9.50996512 Z" id="Shape"></path>
                    <path d="M15.7312083,6.61410465 C15.7924306,6.61410465 15.8544444,6.59832558 15.9111806,6.56516279 L17.6198611,5.56546512 C17.7921806,5.46437209 17.8512917,5.2407907 17.7518056,5.06615116 C17.6517917,4.89097674 17.4306528,4.83160465 17.259125,4.93243023 L15.5507083,5.93239535 C15.378125,6.03348837 15.3190139,6.25706977 15.4185,6.4317093 C15.4852639,6.54884884 15.6066528,6.61410465 15.7312083,6.61410465 Z" id="Shape"></path>
                    <path d="M12.9870278,3.87763953 C13.0440278,3.91080233 13.1057778,3.9265814 13.1672639,3.9265814 C13.2918194,3.9265814 13.4132083,3.86105814 13.4799722,3.74365116 L14.4658611,2.01169767 C14.5653472,1.83705814 14.5062361,1.61347674 14.3336528,1.51265116 C14.1615972,1.41182558 13.9409861,1.47119767 13.8409722,1.64663953 L12.8550833,3.37859302 C12.7553333,3.55296512 12.8144444,3.77654651 12.9870278,3.87763953 Z" id="Shape"></path>
                </g>
            </g>
        </g>
    </g>
</svg>