<?xml version="1.0" encoding="UTF-8" standalone="no"?>
<svg width="44px" height="44px" viewBox="0 0 44 44" version="1.1" xmlns="http://www.w3.org/2000/svg" xmlns:xlink="http://www.w3.org/1999/xlink">
    <!-- Generator: sketchtool 41.2 (35397) - http://www.bohemiancoding.com/sketch -->
    <title>461444FA-D2F8-4817-B84C-DF7BB1A06AC2</title>
    <desc>Created with sketchtool.</desc>
    <defs>
        <circle id="path-1" cx="18" cy="18" r="18"></circle>
        <filter x="-50%" y="-50%" width="200%" height="200%" filterUnits="objectBoundingBox" id="filter-2">
            <feOffset dx="0" dy="2" in="SourceAlpha" result="shadowOffsetOuter1"></feOffset>
            <feGaussianBlur stdDeviation="2" in="shadowOffsetOuter1" result="shadowBlurOuter1"></feGaussianBlur>
            <feColorMatrix values="0 0 0 0 0   0 0 0 0 0   0 0 0 0 0  0 0 0 0.5 0" type="matrix" in="shadowBlurOuter1"></feColorMatrix>
        </filter>
    </defs>
    <g id="Map" stroke="none" stroke-width="1" fill="none" fill-rule="evenodd">
        <g id="Icons" transform="translate(-78.000000, -56.000000)">
            <g id="O2" transform="translate(82.000000, 58.000000)">
                <g id="Oval-3-Copy-5">
                    <use fill="black" fill-opacity="1" filter="url(#filter-2)" xlink:href="#path-1"></use>
                    <use fill="#FFFFFF" fill-rule="evenodd" xlink:href="#path-1"></use>
                </g>
                <path d="M18,35 C27.3888407,35 35,27.3888407 35,18 C35,8.61115925 27.3888407,1 18,1 C8.61115925,1 1,8.61115925 1,18 C1,27.3888407 8.61115925,35 18,35 Z M18,34 C9.163444,34 2,26.836556 2,18 C2,9.163444 9.163444,2 18,2 C26.836556,2 34,9.163444 34,18 C34,26.836556 26.836556,34 18,34 Z" id="power-button-copy-2" fill="#169EB1"></path>
                <path d="M26.6369107,12.7081244 C26.3610832,12.7081244 26.0852558,12.7331996 25.8094283,12.7833501 C24.9819458,11.1033099 23.2517553,10 21.3460381,10 C18.8635908,10 16.782347,11.8555667 16.4312939,14.2377131 C16.005015,14.112337 15.5787362,14.0621866 15.1273821,14.0621866 C12.5697091,14.0621866 10.4633902,15.9929789 10.1875627,18.4503511 C9.98696088,18.4002006 9.76128385,18.4002006 9.53560682,18.4002006 C7.57973922,18.4002006 6,19.9799398 6,21.9358074 C6,23.891675 7.57973922,25.4714142 9.53560682,25.4714142 L20.4182548,25.4714142 C22.7251755,25.4714142 24.6058175,23.665998 24.7562688,21.4092277 L26.6369107,21.4092277 C29.0441324,21.4092277 31,19.4533601 31,17.0461384 C30.9749248,14.663992 29.0190572,12.7081244 26.6369107,12.7081244 Z M20.4182548,24.4684052 L9.53560682,24.4684052 C8.13139418,24.4684052 7.00300903,23.3400201 7.00300903,21.9358074 C7.00300903,20.5315948 8.13139418,19.4032096 9.53560682,19.4032096 C9.86158475,19.4032096 10.1624875,19.4533601 10.4633902,19.5787362 L11.1654965,19.8545637 L11.1404213,19.0270812 C11.1404213,16.8455366 12.9207623,15.0651956 15.1023069,15.0651956 C16.7321966,15.0651956 18.2367101,16.0932798 18.8134403,17.6228686 L18.9889669,18.0491474 L19.440321,17.9237713 C19.7662989,17.8234704 20.0922768,17.77332 20.4182548,17.77332 C22.2738215,17.77332 23.778335,19.2778335 23.778335,21.1334002 C23.778335,22.9889669 22.2738215,24.4684052 20.4182548,24.4684052 Z M26.6369107,20.4062187 L24.7061184,20.4062187 C24.3550652,18.3500502 22.5747242,16.7703109 20.4182548,16.7703109 C20.1424273,16.7703109 19.8665998,16.7953862 19.5907723,16.8455366 C19.114343,15.8676028 18.3119358,15.0902708 17.3841525,14.6138415 C17.559679,12.5827482 19.2647944,11.003009 21.3460381,11.003009 C22.9759278,11.003009 24.4804413,12.0310933 25.0571715,13.560682 L25.2326981,13.9869609 L25.6840522,13.8615848 C26.0100301,13.7612839 26.336008,13.7111334 26.661986,13.7111334 C28.5175527,13.7111334 30.0220662,15.2156469 30.0220662,17.0712136 C30.0220662,18.9267803 28.4674022,20.4062187 26.6369107,20.4062187 Z" id="Shape" fill="#169EB1"></path>
            </g>
        </g>
    </g>
</svg>