<?xml version="1.0" encoding="UTF-8" standalone="no"?>
<svg width="58px" height="53px" viewBox="0 0 58 53" version="1.1" xmlns="http://www.w3.org/2000/svg" xmlns:xlink="http://www.w3.org/1999/xlink">
    <!-- Generator: sketchtool 39.1 (31720) - http://www.bohemiancoding.com/sketch -->
    <title>8D4D5BBB-814B-4A9E-B89D-819AB2FDD660</title>
    <desc>Created with sketchtool.</desc>
    <defs>
        <polygon id="path-1" points="60 60 0 60 0 0 60 0"></polygon>
    </defs>
    <g id="Constructor" stroke="none" stroke-width="1" fill="none" fill-rule="evenodd">
        <g transform="translate(-690.000000, -359.000000)" id="Step-2">
            <g transform="translate(250.000000, 191.000000)">
                <g id="Add-pic" transform="translate(0.000000, 28.000000)">
                    <g id="ic_add_a_photo" transform="translate(440.000000, 138.000000)">
                        <g id="Icon-24px">
                            <mask id="mask-2" fill="white">
                                <use xlink:href="#path-1"></use>
                            </mask>
                            <g id="a"></g>
                            <path d="M7.5,10 L7.5,2.5 L12.5,2.5 L12.5,10 L20,10 L20,15 L12.5,15 L12.5,22.5 L7.5,22.5 L7.5,15 L0,15 L0,10 L7.5,10 L7.5,10 Z M15,25 L15,17.5 L22.5,17.5 L22.5,10 L40,10 L44.575,15 L52.5,15 C55.25,15 57.5,17.25 57.5,20 L57.5,50 C57.5,52.75 55.25,55 52.5,55 L12.5,55 C9.75,55 7.5,52.75 7.5,50 L7.5,25 L15,25 L15,25 Z M32.5,47.5 C39.4,47.5 45,41.9 45,35 C45,28.1 39.4,22.5 32.5,22.5 C25.6,22.5 20,28.1 20,35 C20,41.9 25.6,47.5 32.5,47.5 L32.5,47.5 Z M24.5,35 C24.5,39.425 28.075,43 32.5,43 C36.925,43 40.5,39.425 40.5,35 C40.5,30.575 36.925,27 32.5,27 C28.075,27 24.5,30.575 24.5,35 L24.5,35 Z" id="Shape" fill="#C7C8C2" mask="url(#mask-2)"></path>
                        </g>
                    </g>
                </g>
            </g>
        </g>
    </g>
</svg>