<?xml version="1.0" encoding="UTF-8" standalone="no"?>
<svg width="44px" height="44px" viewBox="0 0 44 44" version="1.1" xmlns="http://www.w3.org/2000/svg" xmlns:xlink="http://www.w3.org/1999/xlink">
    <!-- Generator: sketchtool 41.2 (35397) - http://www.bohemiancoding.com/sketch -->
    <title>336968CB-F20D-4CDB-99FA-337A6EC19DFC</title>
    <desc>Created with sketchtool.</desc>
    <defs>
        <circle id="path-1" cx="18" cy="18" r="18"></circle>
        <filter x="-50%" y="-50%" width="200%" height="200%" filterUnits="objectBoundingBox" id="filter-2">
            <feOffset dx="0" dy="2" in="SourceAlpha" result="shadowOffsetOuter1"></feOffset>
            <feGaussianBlur stdDeviation="2" in="shadowOffsetOuter1" result="shadowBlurOuter1"></feGaussianBlur>
            <feColorMatrix values="0 0 0 0 0   0 0 0 0 0   0 0 0 0 0  0 0 0 0.5 0" type="matrix" in="shadowBlurOuter1"></feColorMatrix>
        </filter>
    </defs>
    <g id="Map" stroke="none" stroke-width="1" fill="none" fill-rule="evenodd">
        <g id="Icons" transform="translate(-183.000000, -108.000000)">
            <g id="O9" transform="translate(187.000000, 110.000000)">
                <g id="Oval-3-Copy-5">
                    <use fill="black" fill-opacity="1" filter="url(#filter-2)" xlink:href="#path-1"></use>
                    <use fill="#FFFFFF" fill-rule="evenodd" xlink:href="#path-1"></use>
                </g>
                <path d="M18,35 C27.3888407,35 35,27.3888407 35,18 C35,8.61115925 27.3888407,1 18,1 C8.61115925,1 1,8.61115925 1,18 C1,27.3888407 8.61115925,35 18,35 Z M18,34 C9.163444,34 2,26.836556 2,18 C2,9.163444 9.163444,2 18,2 C26.836556,2 34,9.163444 34,18 C34,26.836556 26.836556,34 18,34 Z" id="power-button-copy-2" fill="#169EB1"></path>
                <path d="M24.7974144,17.9151546 C24.7968196,16.8320365 23.9153363,16.9509498 22.8312268,16.9509498 L22.7422061,16.9509498 L22.7394304,13.9936841 C22.7380426,11.2401889 20.4968624,9 17.7407897,9 C14.9859066,9.00138785 12.745916,11.2437576 12.7471056,13.9990373 L12.7498813,16.967604 C11.7668866,17.0752615 10.9996036,16.9107475 11.0000002,17.9218956 L11.001388,24.8795864 C11.0019828,25.9625062 11.8834661,26.8437913 12.9665842,26.8437913 L22.8347956,26.8388347 C23.9185085,26.8382399 24.7995953,25.9561618 24.7990005,24.8728454 C24.7990005,24.8728454 24.7980092,18.9982728 24.7974144,17.9151546 Z M17.7433671,9.75935245 C20.0783264,9.75935245 21.9790867,11.6589232 21.9802762,13.9944772 L21.9834485,17.2201927 L21.0412963,17.2201927 L21.0381241,13.9944772 C21.0371327,12.1787723 19.5592703,10.7015046 17.7435654,10.7015046 C16.8630734,10.7019012 16.0361128,11.0454933 15.4135628,11.6686381 C14.7908145,12.291783 14.4482137,13.1189418 14.4486102,13.9982442 L14.4517824,17.2201927 L13.5096303,17.227132 L13.506458,13.9982442 C13.5052684,11.6620954 15.4048392,9.76054204 17.7433671,9.75935245 Z M20.2785734,13.9952702 L20.2813491,16.9521393 L15.2105401,16.9547168 L15.2077644,13.9974511 C15.2073679,13.321568 15.4712577,12.6849412 15.9504626,12.2051414 C16.4296676,11.7253417 17.0658979,11.4610553 17.7419793,11.4606588 L17.7433671,11.0809826 L17.7433671,11.4606588 C19.1407343,11.4606588 20.2779786,12.5975066 20.2785734,13.9952702 Z M22.8342008,26.1272603 L12.967179,26.1316012 L12.9665842,26.464115 L12.9665842,26.1316012 C12.3020021,26.1316012 11.761137,25.6580946 11.7607405,25.0762388 L11.7591543,18.9828144 C11.7589561,18.4004377 12.299623,17.9264102 12.9644033,17.9262365 L22.1866694,17.9260629 L22.1866694,17.9220693 L22.8320199,17.9218956 C23.496602,17.9218956 24.0374671,18.3954023 24.0378636,18.9772581 L24.0392515,25.0706824 C24.0398463,25.6528855 23.4991794,26.126913 22.8342008,26.1272603 Z" id="Shape" fill="#169EB1"></path>
            </g>
        </g>
    </g>
</svg>