<?xml version="1.0" encoding="UTF-8" standalone="no"?>
<svg width="44px" height="44px" viewBox="0 0 44 44" version="1.1" xmlns="http://www.w3.org/2000/svg" xmlns:xlink="http://www.w3.org/1999/xlink">
    <!-- Generator: sketchtool 41.2 (35397) - http://www.bohemiancoding.com/sketch -->
    <title>5FCA6E64-50E3-4B75-B87E-CCB7C0E0D3E0</title>
    <desc>Created with sketchtool.</desc>
    <defs>
        <circle id="path-1" cx="18" cy="18" r="18"></circle>
        <filter x="-50%" y="-50%" width="200%" height="200%" filterUnits="objectBoundingBox" id="filter-2">
            <feOffset dx="0" dy="2" in="SourceAlpha" result="shadowOffsetOuter1"></feOffset>
            <feGaussianBlur stdDeviation="2" in="shadowOffsetOuter1" result="shadowBlurOuter1"></feGaussianBlur>
            <feColorMatrix values="0 0 0 0 0   0 0 0 0 0   0 0 0 0 0  0 0 0 0.5 0" type="matrix" in="shadowBlurOuter1"></feColorMatrix>
        </filter>
    </defs>
    <g id="Map" stroke="none" stroke-width="1" fill="none" fill-rule="evenodd">
        <g id="Icons" transform="translate(-180.000000, -56.000000)">
            <g id="O4" transform="translate(184.000000, 58.000000)">
                <g id="Oval-3-Copy-5">
                    <use fill="black" fill-opacity="1" filter="url(#filter-2)" xlink:href="#path-1"></use>
                    <use fill="#FFFFFF" fill-rule="evenodd" xlink:href="#path-1"></use>
                </g>
                <path d="M18,35 C27.3888407,35 35,27.3888407 35,18 C35,8.61115925 27.3888407,1 18,1 C8.61115925,1 1,8.61115925 1,18 C1,27.3888407 8.61115925,35 18,35 Z M18,34 C9.163444,34 2,26.836556 2,18 C2,9.163444 9.163444,2 18,2 C26.836556,2 34,9.163444 34,18 C34,26.836556 26.836556,34 18,34 Z" id="power-button-copy-2" fill="#169EB1"></path>
                <path d="M16.4379399,5 L16.4379399,9.34189126 L14.0999985,9.34189126 L18.0062485,13.2481413 L21.9124985,9.34189126 L19.574557,9.34189126 L19.574557,5 L16.4379399,5 Z M18.0699349,15 C17.2651272,15 16.4669547,15.3326628 15.8998085,15.8998085 C15.3299613,16.4696562 15,17.2678283 15,18.0699349 C15,18.8747432 15.3299613,19.6702141 15.8998085,20.2400614 C16.4669547,20.8072079 17.2651272,21.1398699 18.0699349,21.1398699 C18.872042,21.1398699 19.6702141,20.8072079 20.2400614,20.2400614 C20.8072084,19.6702141 21.1398699,18.8747432 21.1398699,18.0699349 C21.1398699,17.2678283 20.8072084,16.4696562 20.2400614,15.8998085 C19.6702141,15.3326628 18.872042,15 18.0699349,15 Z M18.0062485,22.6626394 L14.0999985,26.5688894 L16.4379399,26.5688894 L16.4379399,30.9107807 L19.574557,30.9107807 L19.574557,26.5688894 L21.9124985,26.5688894 L18.0062485,22.6626394 Z" id="Shape" fill="#169EB1"></path>
            </g>
        </g>
    </g>
</svg>