<?xml version="1.0" encoding="UTF-8" standalone="no"?>
<svg width="44px" height="44px" viewBox="0 0 44 44" version="1.1" xmlns="http://www.w3.org/2000/svg" xmlns:xlink="http://www.w3.org/1999/xlink">
    <!-- Generator: sketchtool 41.2 (35397) - http://www.bohemiancoding.com/sketch -->
    <title>E381EEC9-7E8D-449F-99B6-05FE8A861D3F</title>
    <desc>Created with sketchtool.</desc>
    <defs>
        <circle id="path-1" cx="18" cy="18" r="18"></circle>
        <filter x="-50%" y="-50%" width="200%" height="200%" filterUnits="objectBoundingBox" id="filter-2">
            <feOffset dx="0" dy="2" in="SourceAlpha" result="shadowOffsetOuter1"></feOffset>
            <feGaussianBlur stdDeviation="2" in="shadowOffsetOuter1" result="shadowBlurOuter1"></feGaussianBlur>
            <feColorMatrix values="0 0 0 0 0   0 0 0 0 0   0 0 0 0 0  0 0 0 0.5 0" type="matrix" in="shadowBlurOuter1"></feColorMatrix>
        </filter>
    </defs>
    <g id="Map" stroke="none" stroke-width="1" fill="none" fill-rule="evenodd">
        <g id="Icons" transform="translate(-79.000000, -108.000000)">
            <g id="O6" transform="translate(83.000000, 110.000000)">
                <g id="Oval-3-Copy-5">
                    <use fill="black" fill-opacity="1" filter="url(#filter-2)" xlink:href="#path-1"></use>
                    <use fill="#FFFFFF" fill-rule="evenodd" xlink:href="#path-1"></use>
                </g>
                <path d="M18,35 C27.3888407,35 35,27.3888407 35,18 C35,8.61115925 27.3888407,1 18,1 C8.61115925,1 1,8.61115925 1,18 C1,27.3888407 8.61115925,35 18,35 Z M18,34 C9.163444,34 2,26.836556 2,18 C2,9.163444 9.163444,2 18,2 C26.836556,2 34,9.163444 34,18 C34,26.836556 26.836556,34 18,34 Z" id="power-button-copy-2" fill="#169EB1"></path>
                <g id="Servo" transform="translate(5.000000, 12.000000)" fill="#169EB1">
                    <path d="M24.6313483,7.90226667 C22.598382,5.12315556 19.6618427,3.20088889 16.349618,2.43851111 L16.2234157,3.76335556 C19.0942247,4.46593333 21.6357978,6.14582222 23.4344719,8.53608889 L22.1052584,9.24011111 L25.8583146,11.5434222 L26,7.17744444 L24.6313483,7.90226667 Z" id="Shape"></path>
                    <path d="M10.0237303,3.76191111 L9.8992809,2.43706667 C6.58150562,3.198 3.63853933,5.12286667 1.60411236,7.90977778 L0.235460674,7.18524444 L0.378314607,11.5509333 L4.12991011,9.24617778 L2.79806742,8.541 C4.60083146,6.14553333 7.14766292,4.46304444 10.0237303,3.76191111 Z" id="Shape"></path>
                    <path d="M17.7562472,10.6334222 C16.6432135,9.53275556 15.2234382,8.94573333 13.7686067,8.80966667 L13.7686067,8.79926667 L13.7686067,7.47326667 L13.7633483,7.47153333 L14.5237753,7.47095556 L15.0718202,1.69491111 C15.0718202,0.808311111 14.2015506,0.0901333333 13.1238652,0.0901333333 C12.048809,0.0912888889 11.1785393,0.810911111 11.1785393,1.69751111 L11.7213258,7.47355556 L12.4729888,7.47297778 L12.4709438,7.47355556 L12.4709438,8.79955556 L12.4709438,8.8166 C11.0368539,8.96711111 9.64074157,9.55413333 8.54377528,10.6392 C8.28173034,10.8983333 8.28173034,11.3183778 8.54377528,11.5778 C8.67465169,11.7075111 8.84642697,11.7722222 9.01820225,11.7722222 C9.18997753,11.7722222 9.36175281,11.7072222 9.49262921,11.5778 C11.5112809,9.58562222 14.7910787,9.57782222 16.8071011,11.5726 C17.0691461,11.8317333 17.4942022,11.8317333 17.7562472,11.5726 C18.0182921,11.3126 18.0182921,10.8925556 17.7562472,10.6334222 Z" id="Shape"></path>
                    <path d="M9.49262921,12.9043778 L16.8071011,12.8991778 C14.7910787,10.9044 11.5112809,10.9119111 9.49262921,12.9043778 Z" id="Shape"></path>
                </g>
            </g>
        </g>
    </g>
</svg>