<?xml version="1.0" encoding="UTF-8" standalone="no"?>
<svg width="44px" height="44px" viewBox="0 0 44 44" version="1.1" xmlns="http://www.w3.org/2000/svg" xmlns:xlink="http://www.w3.org/1999/xlink">
    <!-- Generator: sketchtool 41.2 (35397) - http://www.bohemiancoding.com/sketch -->
    <title>FBCD6CAF-DD4A-4960-870A-343C0DC74ADF</title>
    <desc>Created with sketchtool.</desc>
    <defs>
        <circle id="path-1" cx="18" cy="18" r="18"></circle>
        <filter x="-50%" y="-50%" width="200%" height="200%" filterUnits="objectBoundingBox" id="filter-2">
            <feOffset dx="0" dy="2" in="SourceAlpha" result="shadowOffsetOuter1"></feOffset>
            <feGaussianBlur stdDeviation="2" in="shadowOffsetOuter1" result="shadowBlurOuter1"></feGaussianBlur>
            <feColorMatrix values="0 0 0 0 0   0 0 0 0 0   0 0 0 0 0  0 0 0 0.5 0" type="matrix" in="shadowBlurOuter1"></feColorMatrix>
        </filter>
    </defs>
    <g id="Map" stroke="none" stroke-width="1" fill="none" fill-rule="evenodd">
        <g id="Icons" transform="translate(-131.000000, -108.000000)">
            <g id="O7" transform="translate(135.000000, 110.000000)">
                <g id="Oval-3-Copy-5">
                    <use fill="black" fill-opacity="1" filter="url(#filter-2)" xlink:href="#path-1"></use>
                    <use fill="#FFFFFF" fill-rule="evenodd" xlink:href="#path-1"></use>
                </g>
                <path d="M18,35 C27.3888407,35 35,27.3888407 35,18 C35,8.61115925 27.3888407,1 18,1 C8.61115925,1 1,8.61115925 1,18 C1,27.3888407 8.61115925,35 18,35 Z M18,34 C9.163444,34 2,26.836556 2,18 C2,9.163444 9.163444,2 18,2 C26.836556,2 34,9.163444 34,18 C34,26.836556 26.836556,34 18,34 Z" id="power-button-copy-2" fill="#169EB1"></path>
                <path d="M24.0488946,27 L11.951318,27 C10.3239796,27 9,25.6760048 9,24.0488597 L9,11.9511403 C9,10.3239952 10.3239796,9 11.951318,9 L24.0488946,9 C25.6760204,9 27,10.3239952 27,11.9511403 L27,24.0490723 C27,25.6762174 25.6760204,27 24.0488946,27 Z M11.951318,10.0629377 C10.9100765,10.0629377 10.0629252,10.9098865 10.0629252,11.9511403 L10.0629252,24.0490723 C10.0629252,25.0901135 10.9100765,25.9372749 11.951318,25.9372749 L24.0488946,25.9372749 C25.0899235,25.9372749 25.9370748,25.0903261 25.9370748,24.0490723 L25.9370748,11.9511403 C25.9370748,10.9100991 25.0901361,10.0629377 24.0488946,10.0629377 L11.951318,10.0629377 Z M18,22.1855299 C15.6921769,22.1855299 13.8146259,20.3079567 13.8146259,18.0001063 C13.8146259,15.6922559 15.6921769,13.8146827 18,13.8146827 C20.3078231,13.8146827 22.1851616,15.6922559 22.1851616,18.0001063 C22.1851616,20.3079567 20.3078231,22.1855299 18,22.1855299 Z M18,14.2400704 C15.9266582,14.2400704 14.2397959,15.9269526 14.2397959,18.0003189 C14.2397959,20.0736852 15.9266582,21.7605674 18,21.7605674 C20.0733418,21.7605674 21.7599915,20.0734726 21.7599915,18.0001063 C21.7599915,15.92674 20.0733418,14.2400704 18,14.2400704 Z M17.9997874,23.3634775 C15.042517,23.3634775 12.6366922,20.9574116 12.6366922,18.0001063 C12.6366922,15.042801 15.042517,12.6367351 18,12.6367351 C20.957483,12.6367351 23.3630952,15.042801 23.3630952,18.0001063 C23.3630952,20.9574116 20.9570578,23.3634775 17.9997874,23.3634775 Z M17.9997874,13.0619102 C15.2769983,13.0619102 13.0618622,15.277285 13.0618622,18.0001063 C13.0618622,20.7231402 15.2769983,22.9383024 18,22.9383024 C20.7230017,22.9383024 22.9381378,20.7231402 22.9381378,18.0001063 C22.9379252,15.277285 20.7227891,13.0619102 17.9997874,13.0619102 Z M16.1960034,17.2768835 C15.7965561,17.2768835 15.4727891,17.6006543 15.4727891,18.0001063 C15.4727891,18.3995583 15.7965561,18.7233291 16.1960034,18.7233291 C16.5954507,18.7233291 16.9190051,18.3995583 16.9190051,18.0001063 C16.9192177,17.6008669 16.5954507,17.2768835 16.1960034,17.2768835 Z M19.8275935,17.2768835 C19.4281463,17.2768835 19.1043793,17.6006543 19.1043793,18.0001063 C19.1043793,18.3995583 19.4281463,18.7233291 19.8275935,18.7233291 C20.2270408,18.7233291 20.5505952,18.3995583 20.5505952,18.0001063 C20.5508078,17.6008669 20.2270408,17.2768835 19.8275935,17.2768835 Z" id="Shape" fill="#169EB1"></path>
            </g>
        </g>
    </g>
</svg>