<?xml version="1.0" encoding="UTF-8" standalone="no"?>
<svg width="44px" height="44px" viewBox="0 0 44 44" version="1.1" xmlns="http://www.w3.org/2000/svg" xmlns:xlink="http://www.w3.org/1999/xlink">
    <!-- Generator: sketchtool 41.2 (35397) - http://www.bohemiancoding.com/sketch -->
    <title>77A8FB3F-51FF-4A0C-B375-7E74504D0CC0</title>
    <desc>Created with sketchtool.</desc>
    <defs>
        <circle id="path-1" cx="18" cy="18" r="18"></circle>
        <filter x="-50%" y="-50%" width="200%" height="200%" filterUnits="objectBoundingBox" id="filter-2">
            <feOffset dx="0" dy="2" in="SourceAlpha" result="shadowOffsetOuter1"></feOffset>
            <feGaussianBlur stdDeviation="2" in="shadowOffsetOuter1" result="shadowBlurOuter1"></feGaussianBlur>
            <feColorMatrix values="0 0 0 0 0   0 0 0 0 0   0 0 0 0 0  0 0 0 0.5 0" type="matrix" in="shadowBlurOuter1"></feColorMatrix>
        </filter>
    </defs>
    <g id="Map" stroke="none" stroke-width="1" fill="none" fill-rule="evenodd">
        <g id="Icons" transform="translate(-27.000000, -56.000000)">
            <g id="O1" transform="translate(31.000000, 58.000000)">
                <g id="Oval-3-Copy-5">
                    <use fill="black" fill-opacity="1" filter="url(#filter-2)" xlink:href="#path-1"></use>
                    <use fill="#FFFFFF" fill-rule="evenodd" xlink:href="#path-1"></use>
                </g>
                <path d="M18,35 C27.3888407,35 35,27.3888407 35,18 C35,8.61115925 27.3888407,1 18,1 C8.61115925,1 1,8.61115925 1,18 C1,27.3888407 8.61115925,35 18,35 Z M18,34 C9.163444,34 2,26.836556 2,18 C2,9.163444 9.163444,2 18,2 C26.836556,2 34,9.163444 34,18 C34,26.836556 26.836556,34 18,34 Z" id="power-button-copy-2" fill="#169EB1"></path>
                <g id="Temp" transform="translate(13.500000, 6.000000)" fill="#169EB1">
                    <rect id="Rectangle-path" x="3.71802857" y="4.47886667" width="1.43485714" height="0.3956"></rect>
                    <rect id="Rectangle-path" x="3.71802857" y="8.15017778" width="1.43485714" height="0.397388889"></rect>
                    <rect id="Rectangle-path" x="3.71802857" y="11.8230222" width="1.43485714" height="0.396622222"></rect>
                    <path d="M7.14831429,15.2801778 L7.14831429,2.69457778 C7.14831429,1.20673333 5.93382857,0 4.43545714,0 C2.9394,0 1.60945714,1.20698889 1.60945714,2.69457778 L1.60945714,15.3739667 C0.6732,16.1687444 0.0766285714,17.3489 0.0766285714,18.6688444 C0.0766285714,21.0608444 2.02782857,23 4.43571429,23 C6.84385714,23 8.79505714,21.0608444 8.79505714,18.6688444 C8.7948,17.2957444 8.15065714,16.0739333 7.14831429,15.2801778 Z M4.43545714,21.5451222 C2.8404,21.5451222 1.54645714,20.2591667 1.54645714,18.6731889 C1.54645714,17.6090556 2.13582857,16.6905889 3.0006,16.1943 L3.0006,3.2085 C3.0006,2.43212222 3.65502857,1.8032 4.43545714,1.8032 C5.21588571,1.8032 5.87262857,2.43186667 5.87262857,3.2085 L5.87262857,16.1948111 C6.73688571,16.6913556 7.32497143,17.6095667 7.32497143,18.6729333 C7.32497143,20.2589111 6.03334286,21.5451222 4.43545714,21.5451222 Z" id="Shape"></path>
                    <path d="M5.20817143,16.7879556 L5.20817143,13.9906444 L3.66377143,13.9906444 L3.66377143,16.7879556 C2.91522857,17.0915556 2.38628571,17.8198889 2.38628571,18.6729333 C2.38628571,19.7981444 3.30402857,20.7104778 4.43545714,20.7104778 C5.5692,20.7104778 6.48488571,19.7984 6.48488571,18.6729333 C6.48488571,17.8198889 5.95748571,17.0915556 5.20817143,16.7879556 Z" id="Shape"></path>
                </g>
            </g>
        </g>
    </g>
</svg>