<?xml version="1.0" encoding="UTF-8" standalone="no"?>
<svg width="10px" height="10px" viewBox="0 0 10 10" version="1.1" xmlns="http://www.w3.org/2000/svg" xmlns:xlink="http://www.w3.org/1999/xlink">
    <!-- Generator: sketchtool 39.1 (31720) - http://www.bohemiancoding.com/sketch -->
    <title>598F2822-44BA-4D6C-A6B9-33B7DCC5654B</title>
    <desc>Created with sketchtool.</desc>
    <defs></defs>
    <g id="Symbols" stroke="none" stroke-width="1" fill="none" fill-rule="evenodd" fill-opacity="1">
        <g id="close-icon" fill="#FFFFFF">
            <path d="M0.136747078,0.000948087502 C0.0778166986,0.00668515087 0.027636431,0.0462576717 0.00830355858,0.102239573 C-0.0110293138,0.158221475 0.00403292345,0.220339695 0.0468574934,0.261239978 L4.78261931,5.00328496 L0.0468574934,9.74059736 C0.00844797041,9.77941327 -0.00623873855,9.83583352 0.00836774631,9.88845902 C0.0229742312,9.94108452 0.0646366117,9.98185454 0.117553167,9.99530582 C0.170469721,10.0087571 0.226535139,9.99282927 0.26448491,9.95356345 L5.00024673,5.21625105 L9.73600854,9.95356345 C9.79490605,10.0130841 9.89079826,10.0138557 9.95064531,9.95529051 C10.0104924,9.89672531 10.0118285,9.80080791 9.95363596,9.74059736 L5.21787414,5.00328496 L9.95363596,0.261239978 C9.99922534,0.217303604 10.0126768,0.149633102 9.98735829,0.0915925091 C9.96203977,0.0335519165 9.90329656,-0.00260514267 9.84009122,0.000948087502 C9.80054733,0.00251022391 9.76318657,0.0194979471 9.73600854,0.0482738857 L5.00024673,4.78558629 L0.26448491,0.0482738857 C0.231804231,0.0131475663 0.184416741,-0.00440910239 0.136747078,0.000948087502 L0.136747078,0.000948087502 Z"></path>
        </g>
    </g>
</svg>
